<svg xmlns="http://www.w3.org/2000/svg" width="230.479" height="219.484" viewBox="0 0 230.479 219.484"><g transform="translate(-69.021 -175.979)"><g transform="translate(31.536 17.076)"><g transform="translate(86.928 222.488)" fill="#fff" stroke="#d4deeb" stroke-width="5"><rect width="132.072" height="92.874" rx="19" stroke="none"/><rect x="2.5" y="2.5" width="127.072" height="87.874" rx="16.5" fill="none"/></g><line x2="55.434" transform="translate(105.582 259.763)" fill="none" stroke="#d4deeb" stroke-width="5"/><line x2="55.434" transform="translate(105.582 268.291)" fill="none" stroke="#d4deeb" stroke-width="5"/><line x2="42.108" transform="translate(105.582 278.418)" fill="none" stroke="#d4deeb" stroke-width="5"/><line x2="27.717" transform="translate(105.582 297.607)" fill="none" stroke="#d4deeb" stroke-width="5"/><line x2="17.057" transform="translate(105.582 241.107)" fill="none" stroke="#d4deeb" stroke-width="5"/><line y2="24" transform="translate(191.5 273.607)" fill="none" stroke="#c3d8f2" stroke-width="8"/><circle cx="5.947" cy="5.947" r="5.947" transform="translate(185.054 257.571)" fill="#8cb0df"/></g><g transform="translate(-9)"><line x2="45" transform="translate(259.5 178.5)" fill="none" stroke="#04c45d" stroke-width="5"/><path d="M0,47.843V-.521" transform="translate(306 176.5)" fill="none" stroke="#04c45d" stroke-width="5"/></g><g transform="translate(-187.5)"><line x1="44.888" transform="translate(260.996 178.5)" fill="none" stroke="#04c45d" stroke-width="5"/><path d="M0,47.843V-.521" transform="translate(259.5 176.5)" fill="none" stroke="#04c45d" stroke-width="5"/></g><g transform="translate(20.989 108)"><line y2="48.873" transform="translate(50.532 237.627)" fill="none" stroke="#04c45d" stroke-width="5"/><path d="M0,48.374V0" transform="translate(49.01 284.011) rotate(-90)" fill="none" stroke="#04c45d" stroke-width="5"/></g><g transform="translate(151.777 0.746)"><path d="M0,0H47.643" transform="translate(98.5 392.217)" fill="none" stroke="#04c45d" stroke-width="5"/><path d="M0,48.873V0" transform="translate(143.609 393.754) rotate(180)" fill="none" stroke="#04c45d" stroke-width="5"/></g></g></svg>