<svg xmlns="http://www.w3.org/2000/svg" width="22.93" height="19.567" viewBox="0 0 22.93 19.567"><g transform="translate(-103.7 -761)"><path d="M355.337,1047a2.081,2.081,0,0,1,1.605.688,2.264,2.264,0,0,1,.688,1.605v13.758a2.351,2.351,0,0,1-2.293,2.293H336.993a2.081,2.081,0,0,1-1.605-.688,2.264,2.264,0,0,1-.688-1.605v-13.758a2.351,2.351,0,0,1,2.293-2.293Zm0,4.586v-2.293H336.993v2.293Zm0,11.465v-6.879H336.993v6.879Z" transform="translate(-231 -286)" fill="#707070"/><g transform="translate(110.915 772.809)"><path d="M77.121,141.425a3.688,3.688,0,0,1,2.754-1.125,3.906,3.906,0,0,1,2.754,1.125,3.688,3.688,0,0,1,1.125,2.754,3.839,3.839,0,0,1-1.125,2.754,3.688,3.688,0,0,1-2.754,1.125,3.839,3.839,0,0,1-2.754-1.125A3.688,3.688,0,0,1,76,144.179,3.5,3.5,0,0,1,77.121,141.425Z" transform="translate(-75.993 -140.3)" fill="#707070"/><path d="M8.61,145.263H7.063v1.547H6.547v-1.547H5v-.516H6.547V143.2h.516v1.547H8.61Z" transform="translate(-2.746 -141.095)" fill="#d8d8d8"/></g></g></svg>