<svg xmlns="http://www.w3.org/2000/svg" width="71.254" height="97.295" viewBox="0 0 71.254 97.295"><g transform="translate(-436 -3822.741)"><rect width="43" height="7" transform="translate(451 3828)" fill="#fff"/><path d="M0,0H43l3.656,7H0Z" transform="translate(436 3842)" fill="#fff"/><path d="M-1.321.793,21.471-1.286,30.4,5.6-.013,9.083Z" transform="translate(477.325 3841.647) rotate(-36)" fill="#fff"/><rect width="8" height="19" transform="translate(436 3848)" fill="#fff"/><rect width="6.5" height="13" transform="translate(451 3854)" fill="#fff"/><path d="M0,0H31.693l-6.51,7H0Z" transform="translate(454 3860)" fill="#fff"/><path d="M0,0H7.062V38.938L0,45.333Z" transform="translate(436 3874.703)" fill="#fff"/><path d="M0-.3H18.024l4.988,7.663H0Z" transform="translate(442 3875)" fill="#fff"/><path d="M0,0H7V15.359L0,15Z" transform="translate(451 3886)" fill="#fff"/><path d="M0,0H16l1.625,8.106L-3.588,6.118Z" transform="translate(439.808 3908.122) rotate(-45)" fill="#fff"/><path d="M0,0H22l.484,9.28L0,9Z" transform="translate(458.295 3876.349) rotate(-48)" fill="#fff"/></g></svg>